name Walk2.mot
datacolumns 19
datarows 12
range 2.63600000 2.64700000
endheader

                time	   L_ground_force_vx	   L_ground_force_vy	   L_ground_force_vz	   L_ground_force_px	   L_ground_force_py	   L_ground_force_pz	   R_ground_force_vx	   R_ground_force_vy	   R_ground_force_vz	   R_ground_force_px	   R_ground_force_py	   R_ground_force_pz	   L_ground_torque_x	   L_ground_torque_y	   L_ground_torque_z	   R_ground_torque_x	   R_ground_torque_y	   R_ground_torque_z	
          2.63600000	          1.34297378	         74.75950218	         -4.84228467	          0.00875052	          0.00000000	         -0.00140840	         -0.00000000	          0.00000000	          0.00000000	          0.00000000	          0.00000000	          0.00000000	          0.00000000	          0.11566148	          0.00000000	          0.00000000	          0.00000000	          0.00000000	
          2.63700000	          1.00166601	         82.06166237	         -5.29274236	         -0.00871627	          0.00000000	         -0.00386246	         -0.00000000	          0.00000000	          0.00000000	          0.00000000	          0.00000000	          0.00000000	          0.00000000	          0.13537722	          0.00000000	          0.00000000	          0.00000000	          0.00000000	
          2.63800000	          0.61274769	         89.65445425	         -5.74525381	         -0.02611638	          0.00000000	         -0.00631167	         -0.00000000	          0.00000000	          0.00000000	          0.00000000	          0.00000000	          0.00000000	          0.00000000	          0.15585155	          0.00000000	          0.00000000	          0.00000000	          0.00000000	
          2.63900000	          0.17365117	         97.53457087	         -6.19852319	         -0.04340695	          0.00000000	         -0.00875009	         -0.00000000	          0.00000000	          0.00000000	          0.00000000	          0.00000000	          0.00000000	          0.00000000	          0.17708136	          0.00000000	          0.00000000	          0.00000000	          0.00000000	
          2.64000000	         -0.31820039	        105.69730391	         -6.65116495	         -0.06054475	          0.00000000	         -0.01117167	         -0.00000000	          0.00000000	          0.00000000	          0.00000000	          0.00000000	          0.00000000	          0.00000000	          0.19906110	          0.00000000	          0.00000000	          0.00000000	          0.00000000	
          2.64100000	         -0.86538611	        114.13642075	         -7.10169686	         -0.07748583	          0.00000000	         -0.01357023	         -0.00000000	          0.00000000	          0.00000000	          0.00000000	          0.00000000	          0.00000000	          0.00000000	          0.22178245	          0.00000000	          0.00000000	          0.00000000	          0.00000000	
          2.64200000	         -1.47047676	        122.84404950	         -7.54853742	         -0.09418575	          0.00000000	         -0.01593948	         -0.00000000	          0.00000000	          0.00000000	          0.00000000	          0.00000000	          0.00000000	          0.00000000	          0.24523412	          0.00000000	          0.00000000	          0.00000000	          0.00000000	
          2.64300000	         -2.13601245	        131.81060470	         -7.99001911	         -0.11060094	          0.00000000	         -0.01827317	         -0.00000000	          0.00000000	          0.00000000	          0.00000000	          0.00000000	          0.00000000	          0.00000000	          0.26940200	          0.00000000	          0.00000000	          0.00000000	          0.00000000	
          2.64400000	         -2.86446638	        141.02476540	         -8.42441840	         -0.12669095	          0.00000000	         -0.02056544	         -0.00000000	          0.00000000	          0.00000000	          0.00000000	          0.00000000	          0.00000000	          0.00000000	          0.29426970	          0.00000000	          0.00000000	          0.00000000	          0.00000000	
          2.64500000	         -3.65820197	        150.47347772	         -8.84998836	         -0.14241980	          0.00000000	         -0.02281100	         -0.00000000	          0.00000000	          0.00000000	          0.00000000	          0.00000000	          0.00000000	          0.00000000	          0.31981879	          0.00000000	          0.00000000	          0.00000000	          0.00000000	
          2.64600000	         -4.51942864	        160.14196633	         -9.26498459	         -0.15775606	          0.00000000	         -0.02500518	         -0.00000000	          0.00000000	          0.00000000	          0.00000000	          0.00000000	          0.00000000	          0.00000000	          0.34602860	          0.00000000	          0.00000000	          0.00000000	          0.00000000	
          2.64700000	         -5.45015446	        170.01376914	         -9.66768768	         -0.17267255	          0.00000000	         -0.02714390	         -0.00000000	          0.00000000	          0.00000000	          0.00000000	          0.00000000	          0.00000000	          0.00000000	          0.37287578	          0.00000000	          0.00000000	          0.00000000	          0.00000000	
